<?xml version="1.0" standalone="no"?>
<!DOCTYPE svg PUBLIC "-//W3C//DTD SVG 20010904//EN"
 "http://www.w3.org/TR/2001/REC-SVG-20010904/DTD/svg10.dtd">
<svg version="1.0" xmlns="http://www.w3.org/2000/svg"
 width="700.000000pt" height="700.000000pt" viewBox="0 0 700.000000 700.000000"
 preserveAspectRatio="xMidYMid meet">
<metadata>
Created by potrace 1.14, written by Peter Selinger 2001-2017
</metadata>
<g transform="translate(0.000000,700.000000) scale(0.100000,-0.100000)"
fill="#000000" stroke="none">
<path d="M163 3501 l2 -3336 3337 -2 3336 -1 -1 3336 -2 3337 -3337 1 -3336 2
1 -3337z m6417 -1 l0 -3080 -3080 0 -3080 0 0 3080 0 3080 3080 0 3080 0 0
-3080z"/>
<path d="M1256 5491 l-97 -98 1202 -1206 c661 -664 1206 -1207 1211 -1207 4 0
364 356 798 790 l790 790 -95 96 -96 96 -25 -23 c-14 -13 -326 -324 -692 -691
-367 -367 -673 -668 -679 -668 -7 0 -27 15 -44 33 -17 17 -514 516 -1104 1108
l-1072 1077 -97 -97z"/>
<path d="M1305 3035 c0 -1079 3 -1624 10 -1622 6 2 67 21 138 42 l127 38 0
1248 c0 687 1 1249 3 1249 2 0 450 -447 996 -993 l992 -993 997 994 997 995 3
-1246 c1 -686 3 -1247 5 -1247 1 0 62 -15 135 -34 72 -18 132 -30 133 -27 5
40 2 3210 -4 3208 -4 -1 -515 -509 -1135 -1129 l-1129 -1126 -1134 1134 -1134
1134 0 -1625z"/>
</g>
</svg>
