<svg width="1363" height="126" fill="none" xmlns="http://www.w3.org/2000/svg"><path d="M2.09 48.857c0-5.786-.053-11.196-.16-16.232a440.26 440.26 0 00-.483-13.66c-.214-4.072-.429-7.5-.643-10.286C.59 5.786.322 3.696 0 2.41c.858.107 2.358.214 4.502.321h5.629c3.001 0 5.788-.053 8.361-.16 2.573-.108 4.342-.268 5.307-.483-.215 1.607-.429 3.857-.643 6.75a617.507 617.507 0 01-.483 10.286c-.107 3.964-.214 8.41-.321 13.34a704.028 704.028 0 00-.161 15.589v44.678c.107 4.286.16 7.607.16 9.964.108 2.358.215 3.965.322 4.822.215.75.429 1.178.643 1.286.322.428.858.75 1.608.964.75.107 1.608.214 2.573.321 3.323.322 8.416.482 15.276.482 7.933 0 14.151-.321 18.654-.964 4.502-.643 7.932-1.553 10.29-2.732-.428.964-.91 2.25-1.446 3.857-.43 1.607-.858 3.214-1.287 4.822-.428 1.607-.857 3.16-1.286 4.66-.322 1.5-.59 2.679-.804 3.536-.429.214-1.394.321-2.895.321-1.5.108-4.18.161-8.04.161-5.896 0-10.988-.053-15.276-.161a1875.5 1875.5 0 01-11.578-.321 1494.61 1494.61 0 01-9.166-.321 215.937 215.937 0 00-8.361-.161H4.824c-1.715.107-3.162.214-4.342.321.322-2.893.644-8.41.965-16.553.429-8.143.643-18.107.643-29.893V48.857zm91.547 0c0-13.286-.214-23.732-.643-31.34-.322-7.606-.804-12.642-1.447-15.106 1.394.214 3.27.321 5.628.321h52.582c1.394-.107 2.68-.214 3.86-.321 1.286-.215 2.305-.429 3.055-.643-.322 1.607-.697 4.071-1.126 7.393-.321 3.214-.482 6.75-.482 10.607-1.179-.75-2.841-1.34-4.985-1.768-2.144-.536-5.467-1.018-9.97-1.446-2.68-.215-6.325-.375-10.934-.483-4.61-.107-9.541-.16-14.794-.16-.429 0-.643.16-.643.482V52.07c0 .536.214.804.643.804h19.135c2.466-.107 4.342-.16 5.628-.16 4.717-.108 8.094-.269 10.131-.483 2.037-.321 3.538-.643 4.502-.964a114.942 114.942 0 00-.643 4.5 71.491 71.491 0 00-.482 4.982l-.322 4.821v3.858c-1.393-.75-2.948-1.34-4.663-1.768-1.715-.536-4.288-.911-7.719-1.125-1.286-.107-3.216-.161-5.788-.161-2.466-.107-5.039-.16-7.719-.16a173.038 173.038 0 00-7.236-.161c-2.251-.108-3.859-.161-4.824-.161-.429 0-.643.214-.643.643V92.57c.107 4.286.16 7.608.16 9.965.108 2.357.215 3.964.322 4.821.214.857.429 1.339.643 1.447.215.214.697.428 1.447.642a16.92 16.92 0 002.252.483c2.144.214 4.395.375 6.753.482 2.359.107 5.253.16 8.684.16 6.968 0 12.596-.267 16.884-.803 4.288-.643 7.826-1.607 10.613-2.893-.858 2.571-1.662 5.518-2.412 8.839-.643 3.215-1.126 5.893-1.447 8.036-.322.214-1.126.375-2.412.482-1.287.107-3.484.161-6.593.161-10.828 0-19.618-.214-26.372-.643-6.754-.321-12.274-.482-16.562-.482h-8.362c-2.359.107-4.127.268-5.307.482.215-3 .536-8.571.965-16.714.429-8.143.643-18.107.643-29.893V48.857zm197.71 56.089v9.643c0 2.143.053 3.697.16 4.661-2.465.964-5.36 1.875-8.683 2.732-3.216.75-6.7 1.393-10.452 1.929a123.893 123.893 0 01-11.256 1.446c-3.86.429-7.612.643-11.256.643-12.329 0-23.37-1.929-33.126-5.786-9.755-3.857-17.795-9.535-24.12-17.035-4.181-4.929-7.612-10.822-10.292-17.679-2.68-6.857-4.02-14.679-4.02-23.464 0-6.643.751-12.59 2.252-17.84 1.608-5.357 3.644-10.071 6.11-14.142 2.573-4.179 5.414-7.768 8.523-10.768 3.216-3.107 6.485-5.679 9.809-7.715 4.18-2.678 8.361-4.767 12.542-6.267 4.288-1.608 8.469-2.786 12.543-3.536C234.154.91 237.96.428 241.498.32c3.645-.213 6.914-.32 9.809-.32 4.931 0 9.594.321 13.99.964 4.502.536 8.522 1.179 12.06 1.929 3.645.643 6.7 1.34 9.165 2.09 2.466.642 4.289 1.017 5.468 1.124-.215.857-.483 2.143-.804 3.857a196.894 196.894 0 00-.643 5.465 650.94 650.94 0 00-.644 6.428 122.7 122.7 0 00-.16 6.107c-1.18-1.393-3.002-2.893-5.468-4.5-2.358-1.714-5.36-3.321-9.005-4.821-3.645-1.5-7.879-2.732-12.703-3.697-4.717-1.071-10.023-1.607-15.92-1.607-13.4 0-24.227 3.857-32.482 11.572-3.859 3.75-7.021 8.518-9.487 14.303-2.358 5.679-3.538 12.107-3.538 19.286 0 7.5 1.072 14.143 3.216 19.929 2.144 5.785 4.771 10.446 7.88 13.982 5.467 7.071 11.792 12.16 18.974 15.268 7.29 3 14.58 4.5 21.87 4.5 3.001 0 6.217-.215 9.648-.643 3.43-.536 6.057-1.34 7.879-2.411.322-.321.482-1.821.482-4.5v-15.91c0-5.68-.268-10.822-.804-15.43-.428-4.606-.911-7.874-1.447-9.803 1.394.214 3.109.375 5.146.482h5.789c3.43 0 6.11-.053 8.04-.16 1.93-.215 3.484-.375 4.663-.483-.214 1.929-.482 5.572-.804 10.929-.214 5.357-.321 11.625-.321 18.804v11.892zM347.07 87.91c-.429 0-.697.161-.804.483a470.343 470.343 0 00-3.538 9.643 541.138 541.138 0 00-3.377 9.803c-1.072 3.107-2.09 6.054-3.055 8.84-.858 2.785-1.501 5.089-1.93 6.91a216.938 216.938 0 00-3.537-.321h-5.628c-2.573 0-4.985.053-7.237.161-2.251.107-3.805.267-4.663.482 2.144-4.286 4.824-9.911 8.04-16.875 3.216-6.965 6.861-15.107 10.935-24.429l32.16-74.893c1.394-3 2.359-5.035 2.895-6.107C367.974.536 368.564 0 369.1 0c.536 0 1.125.536 1.768 1.607.644.964 1.662 3 3.056 6.107.536 1.179 1.822 4.125 3.859 8.84a2273.64 2273.64 0 017.718 17.196c3.109 6.75 6.433 14.196 9.97 22.34a4324.814 4324.814 0 0110.774 24.267c1.93 4.286 3.859 8.625 5.789 13.018 2.037 4.393 3.966 8.571 5.789 12.536a853.636 853.636 0 005.306 10.446c1.716 3.107 3.163 5.518 4.342 7.232-2.144-.107-4.181-.214-6.111-.321h-4.341c-2.895 0-5.789.053-8.684.161-2.894.107-4.984.267-6.271.482-.643-1.822-1.554-4.179-2.733-7.072-1.18-3-2.466-6.16-3.86-9.482a44057.62 44057.62 0 00-4.181-9.964 1087.624 1087.624 0 00-3.698-9c-.214-.322-.429-.482-.643-.482H347.07zm34.894-13.178c.429 0 .589-.214.482-.643l-16.08-39.857L351.09 74.09c-.107.429 0 .643.321.643h30.553zm67.516-25.875c0-5.786-.054-11.196-.161-16.232-.107-5.036-.268-9.59-.483-13.66-.214-4.072-.428-7.5-.643-10.286-.214-2.893-.482-4.983-.804-6.268.858.107 2.359.214 4.503.321h5.628c3.001 0 5.789-.053 8.361-.16 2.573-.108 4.342-.268 5.307-.483-.215 1.607-.429 3.857-.643 6.75a620.372 620.372 0 01-.483 10.286c-.107 3.964-.214 8.41-.321 13.34a705.197 705.197 0 00-.161 15.589v44.678c.107 4.286.161 7.607.161 9.964.107 2.358.214 3.965.321 4.822.215.75.429 1.178.644 1.286.321.428.857.75 1.608.964.75.107 1.608.214 2.572.321 3.324.322 8.416.482 15.277.482 7.933 0 14.15-.321 18.653-.964 4.502-.643 7.933-1.553 10.291-2.732-.429.964-.911 2.25-1.447 3.857l-1.287 4.822c-.428 1.607-.857 3.16-1.286 4.66-.322 1.5-.59 2.679-.804 3.536-.429.214-1.394.321-2.894.321-1.501.108-4.181.161-8.041.161-5.896 0-10.988-.053-15.276-.161-4.288-.107-8.147-.214-11.578-.321-3.323-.107-6.378-.214-9.165-.321a215.99 215.99 0 00-8.362-.161h-6.754c-1.715.107-3.162.214-4.341.321.321-2.893.643-8.41.964-16.553.429-8.143.644-18.107.644-29.893V48.857zm128.747 75.054c.429-1.715.911-4.393 1.447-8.036.644-3.75 1.287-8.143 1.93-13.179a755.96 755.96 0 002.251-16.875 2117.68 2117.68 0 002.573-18.964c.858-6.643 1.662-13.286 2.412-19.928.858-6.75 1.662-13.286 2.412-19.608a937.91 937.91 0 001.447-12.857 835.435 835.435 0 011.608-11.893c.215-1.071.376-1.767.483-2.089.214-.321.482-.482.804-.482.429 0 1.179.91 2.251 2.732.858 1.286 1.876 2.947 3.055 4.982a745.33 745.33 0 013.86 6.75 433.554 433.554 0 014.18 7.232 162.378 162.378 0 004.02 6.75l34.895 61.875L676.96 37.93c2.573-4.179 4.824-7.875 6.754-11.09a838.897 838.897 0 005.145-8.678c1.501-2.572 2.787-4.929 3.86-7.072l3.537-6.428c1.179-1.929 2.037-3.161 2.573-3.697.536-.643 1.018-.964 1.447-.964.429 0 .751.268.965.804.214.535.429 1.875.643 4.017.536 3.965.965 8.09 1.287 12.375.428 4.179.911 8.411 1.447 12.697.965 9.321 1.983 19.018 3.055 29.09a7839.277 7839.277 0 003.377 28.124c1.072 8.679 2.091 16.286 3.055 22.822.965 6.535 1.769 11.089 2.412 13.66-.857-.107-2.09-.214-3.698-.321h-6.271c-2.788 0-5.468.053-8.041.161-2.465.107-4.395.267-5.788.482 0-2.036-.108-4.768-.322-8.197-.107-3.535-.322-7.5-.643-11.893-.322-4.392-.697-9.107-1.126-14.142a790.465 790.465 0 00-1.125-15.268c-.322-5.25-.697-10.34-1.126-15.268-.322-5.036-.59-9.75-.804-14.143a1993.3 1993.3 0 01-10.452 19.607l-10.935 20.25a1924.418 1924.418 0 00-10.613 19.929c-3.43 6.428-6.539 12.589-9.326 18.482-.536 1.178-.965 1.714-1.287 1.607-.321 0-.75-.482-1.286-1.446a718.62 718.62 0 00-10.131-20.411 890.689 890.689 0 00-10.452-20.25A2940.96 2940.96 0 00612.96 63.32a563.014 563.014 0 01-9.004-18.16c-.429 6.643-.965 13.928-1.608 21.857-.536 7.928-1.072 15.59-1.608 22.982a1678.88 1678.88 0 01-1.287 20.25c-.322 6-.482 10.446-.482 13.339-1.18-.214-2.68-.321-4.503-.321h-4.181c-2.787 0-5.199.053-7.236.161-2.037.107-3.645.267-4.824.482zm188.28-36.001c-.429 0-.697.161-.804.483a476.324 476.324 0 00-3.538 9.643 541.138 541.138 0 00-3.377 9.803c-1.072 3.107-2.09 6.054-3.055 8.84-.858 2.785-1.501 5.089-1.93 6.91a216.938 216.938 0 00-3.537-.321h-5.628c-2.573 0-4.985.053-7.236.161-2.252.107-3.806.267-4.664.482 2.144-4.286 4.824-9.911 8.04-16.875 3.217-6.965 6.861-15.107 10.935-24.429l32.16-74.893c1.394-3 2.359-5.035 2.895-6.107C787.411.536 788.001 0 788.537 0c.536 0 1.125.536 1.769 1.607.643.964 1.661 3 3.055 6.107.536 1.179 1.822 4.125 3.859 8.84a2309.727 2309.727 0 017.719 17.196 1132.02 1132.02 0 019.969 22.34 4253.273 4253.273 0 0110.774 24.267c1.93 4.286 3.859 8.625 5.789 13.018 2.037 4.393 3.967 8.571 5.789 12.536a868.111 868.111 0 005.306 10.446c1.716 3.107 3.163 5.518 4.342 7.232-2.144-.107-4.181-.214-6.11-.321h-4.342a232.8 232.8 0 00-8.683.161c-2.895.107-4.985.267-6.272.482-.643-1.822-1.554-4.179-2.733-7.072-1.18-3-2.466-6.16-3.86-9.482l-4.18-9.964a1120.218 1120.218 0 00-3.699-9c-.214-.322-.429-.482-.643-.482h-39.879zm34.894-13.178c.429 0 .59-.214.482-.643l-16.08-39.857-15.276 39.857c-.107.429 0 .643.321.643h30.553zm33.394-55.446c.322-.965.643-2.197.965-3.697.322-1.607.59-3.268.804-4.982.322-1.821.59-3.536.804-5.143.322-1.714.536-3.16.643-4.339 2.144.536 5.146.964 9.005 1.286 3.967.214 9.595.321 16.884.321h61.427a837.16 837.16 0 007.558-.321c2.358-.107 4.448-.268 6.271-.482 1.822-.215 3.162-.429 4.02-.643-.643 2.785-1.126 5.893-1.447 9.321a166.207 166.207 0 00-.643 9.804c-1.501-1.072-3.645-1.875-6.432-2.411-2.788-.643-6.593-1.125-11.417-1.446-2.895-.215-6.218-.375-9.97-.483-3.645-.107-8.576-.16-14.794-.16v61.232c0 4.821.054 9.643.161 14.464.107 4.714.214 9.161.321 13.339.215 4.179.376 7.929.483 11.25.214 3.215.429 5.679.643 7.393a125.819 125.819 0 00-4.02-.321h-5.146c-3.001 0-5.681.053-8.04.161a88.345 88.345 0 00-6.11.482c.214-1.607.375-3.965.482-7.072.214-3.214.375-6.857.482-10.928.215-4.179.322-8.732.322-13.661.107-4.929.161-9.964.161-15.107V15.91h-9.488a96.35 96.35 0 00-5.306.16c-1.822 0-4.02.054-6.593.161-5.789.322-10.291.697-13.507 1.125-3.216.429-6.057 1.072-8.523 1.929zm118.718 0c.321-.965.643-2.197.964-3.697.322-1.607.59-3.268.804-4.982.322-1.821.59-3.536.805-5.143.321-1.714.535-3.16.643-4.339 2.144.536 5.145.964 9.005 1.286 3.966.214 9.594.321 16.884.321h61.422c2.79-.107 5.31-.214 7.56-.321 2.36-.107 4.45-.268 6.27-.482 1.83-.215 3.17-.429 4.02-.643-.64 2.785-1.12 5.893-1.44 9.321a162.24 162.24 0 00-.65 9.804c-1.5-1.072-3.64-1.875-6.43-2.411-2.79-.643-6.59-1.125-11.42-1.446-2.89-.215-6.21-.375-9.97-.483-3.64-.107-8.57-.16-14.79-.16v61.232c0 4.821.05 9.643.16 14.464.11 4.714.22 9.161.32 13.339.22 4.179.38 7.929.49 11.25.21 3.215.42 5.679.64 7.393-1.07-.107-2.41-.214-4.02-.321h-5.15c-3 0-5.68.053-8.04.161a88.432 88.432 0 00-6.108.482c.215-1.607.375-3.965.482-7.072.215-3.214.376-6.857.483-10.928.214-4.179.321-8.732.321-13.661.108-4.929.161-9.964.161-15.107V15.91h-9.487a96.44 96.44 0 00-5.307.16c-1.822 0-4.02.054-6.592.161-5.789.322-10.292.697-13.508 1.125-3.216.429-6.057 1.072-8.522 1.929zm129.747 29.571c0-13.286-.21-23.732-.64-31.34-.32-7.606-.8-12.642-1.45-15.106 1.4.214 3.27.321 5.63.321h52.58c1.4-.107 2.68-.214 3.86-.321 1.29-.215 2.31-.429 3.06-.643-.32 1.607-.7 4.071-1.13 7.393-.32 3.214-.48 6.75-.48 10.607-1.18-.75-2.84-1.34-4.98-1.768-2.15-.536-5.47-1.018-9.97-1.446-2.68-.215-6.33-.375-10.94-.483-4.61-.107-9.54-.16-14.79-.16-.43 0-.65.16-.65.482V52.07c0 .536.22.804.65.804h19.13c2.47-.107 4.34-.16 5.63-.16 4.72-.108 8.09-.269 10.13-.483 2.04-.321 3.54-.643 4.5-.964-.21 1.286-.42 2.786-.64 4.5a76.043 76.043 0 00-.48 4.982 779.99 779.99 0 00-.32 4.821v3.858c-1.4-.75-2.95-1.34-4.67-1.768-1.71-.536-4.28-.911-7.71-1.125-1.29-.107-3.22-.161-5.79-.161-2.47-.107-5.04-.16-7.72-.16-2.58-.108-4.99-.161-7.24-.161-2.25-.108-3.86-.161-4.82-.161-.43 0-.65.214-.65.643V92.57c.11 4.286.17 7.608.17 9.965.1 2.357.21 3.964.32 4.821.21.857.43 1.339.64 1.447.21.214.7.428 1.45.642.75.215 1.5.375 2.25.483 2.14.214 4.39.375 6.75.482 2.36.107 5.25.16 8.69.16 6.96 0 12.59-.267 16.88-.803 4.29-.643 7.83-1.607 10.61-2.893-.85 2.571-1.66 5.518-2.41 8.839-.64 3.215-1.13 5.893-1.45 8.036-.32.214-1.12.375-2.41.482-1.29.107-3.48.161-6.59.161-10.83 0-19.62-.214-26.37-.643-6.76-.321-12.28-.482-16.57-.482h-8.36c-2.36.107-4.12.268-5.3.482.21-3 .53-8.571.96-16.714.43-8.143.64-18.107.64-29.893V48.857zm94.54 0c0-11.571-.16-21.428-.48-29.571-.33-8.143-.97-13.768-1.93-16.875 1.82.107 3.48.214 4.98.321h9.01c2.03-.107 4.23-.214 6.59-.321 2.46-.107 4.93-.161 7.4-.161 2.46-.107 4.5-.16 6.11-.16 6.54 0 12.32.481 17.36 1.446 5.04.857 9.28 2.303 12.71 4.339 4.18 2.464 7.77 6 10.77 10.607 3 4.5 4.5 9.91 4.5 16.232 0 6.75-1.71 12.965-5.14 18.643-3.33 5.572-8.2 10.447-14.64 14.625 4.83 6.75 9.92 13.822 15.28 21.214 5.36 7.286 10.72 13.875 16.08 19.768 7.18 7.929 12.33 12.643 15.44 14.143-1.4.536-3.49.857-6.27.964-2.79.215-5.47.322-8.04.322-4.83 0-8.69-.643-11.58-1.929-2.79-1.393-5.63-3.535-8.52-6.428-2.26-2.25-4.77-5.197-7.56-8.84a509.303 509.303 0 01-8.04-11.25 894.128 894.128 0 00-7.72-11.25c-2.36-3.642-4.34-6.535-5.95-8.678-.43-.75-1.07-1.125-1.93-1.125h-13.51c-1.71-.107-3.27-.16-4.66-.16-.43 0-.64.32-.64.963v4.34c0 4.821.05 9.482.16 13.982.1 4.393.21 8.464.32 12.214.21 3.75.43 7.125.64 10.125.22 2.893.48 5.304.81 7.232a113.01 113.01 0 00-4.35-.321h-5.46c-2.15 0-4.67.053-7.56.161-2.9.107-4.93.267-6.11.482.21-1.715.43-4.125.64-7.232.32-3.215.54-6.858.65-10.929.21-4.179.37-8.679.48-13.5.1-4.929.16-9.964.16-15.107V48.857zm19.62 10.929c0 .643.05 1.071.16 1.285.1.108.26.268.48.483 1.5.428 3.81.803 6.91 1.125 3.22.214 6.76.321 10.62.321 4.29 0 7.23-.59 8.84-1.768 2.68-2.036 5.09-4.768 7.24-8.196 2.14-3.536 3.21-7.982 3.21-13.34 0-4.285-.69-7.982-2.09-11.089-1.39-3.214-3.32-5.893-5.79-8.036-2.35-2.142-5.2-3.75-8.52-4.821-3.21-1.071-6.65-1.607-10.29-1.607-2.14 0-4.18.053-6.11.16-1.82.108-3.16.268-4.02.483-.43.107-.64.482-.64 1.125v43.875zm94.83 59.303c.1-.643.26-1.768.48-3.375.21-1.714.37-3.589.48-5.625.22-2.143.38-4.285.48-6.428.11-2.25.16-4.232.16-5.947 1.29 1.715 2.9 3.429 4.83 5.143a44.693 44.693 0 006.75 4.661c2.58 1.393 5.36 2.518 8.36 3.375 3.01.857 6.11 1.286 9.33 1.286 6.65 0 11.53-1.661 14.63-4.983 3.11-3.428 4.67-7.607 4.67-12.535 0-2.036-.22-3.911-.65-5.625-.42-1.715-1.23-3.429-2.41-5.143-1.18-1.714-2.79-3.482-4.82-5.304-2.04-1.821-4.67-3.803-7.88-5.946l-8.04-5.304c-4.5-2.893-8.2-5.732-11.1-8.518-2.78-2.892-4.98-5.732-6.59-8.517-1.61-2.893-2.73-5.786-3.38-8.679a40.068 40.068 0 01-.96-8.679c0-4.5.8-8.732 2.41-12.696 1.72-4.071 4.18-7.554 7.4-10.446 3.21-3 7.13-5.358 11.74-7.072C1322.85.911 1328.16 0 1334.06 0c3.32 0 6.32.16 9 .482 2.68.322 5.09.643 7.24.964 5.46.965 8.84 1.447 10.13 1.447-.11.428-.27 1.393-.49 2.893-.1 1.393-.26 3.107-.48 5.143-.1 1.928-.21 4.017-.32 6.267-.11 2.25-.16 4.447-.16 6.59-.86-.965-1.98-2.036-3.38-3.215-1.28-1.178-3-2.303-5.14-3.375-2.04-1.178-4.45-2.142-7.24-2.892s-5.95-1.125-9.49-1.125c-5.57 0-9.97 1.5-13.18 4.5-3.11 3-4.67 6.642-4.67 10.928 0 1.822.17 3.59.49 5.304.32 1.607.96 3.214 1.93 4.821 1.07 1.607 2.52 3.322 4.34 5.143 1.93 1.714 4.5 3.59 7.72 5.625l7.88 5.143c4.93 3.214 9 6.268 12.22 9.16 3.21 2.893 5.73 5.733 7.56 8.518 1.82 2.786 3.1 5.625 3.85 8.518.75 2.893 1.13 6 1.13 9.322 0 2.143-.27 4.5-.8 7.071-.54 2.572-1.45 5.197-2.74 7.875-1.18 2.572-2.78 5.089-4.82 7.554-1.93 2.357-4.34 4.5-7.24 6.428a39.2 39.2 0 01-13.18 5.304c-4.61 1.071-8.85 1.607-12.71 1.607-2.68 0-5.41-.161-8.2-.482a69.003 69.003 0 01-8.2-1.447 47.466 47.466 0 01-7.23-2.089c-2.26-.857-4.13-1.821-5.63-2.893z" fill="#281629" fill-opacity=".2" style="mix-blend-mode:overlay"/></svg>