<svg width="245" height="55" fill="none" xmlns="http://www.w3.org/2000/svg"><path d="M197.674 20.349l-.129-.455.451.13h6.053c.322 0 .515-.065.708-.065l.386-.065-.064.39c0 .13-.065.325-.065.65-.064.26-.064.585-.064.91v.455l-.386-.26c-.065-.065-.193-.065-.451-.13-.193-.065-.515-.065-.966-.13-.257 0-.708-.065-1.223-.065h-1.803v4.55h2.833c.451 0 .837-.064 1.095-.064.257 0 .386-.065.45-.065l.451-.13-.129.455c-.064.195-.064.455-.128.78 0 .325-.065.52 0 .715v.455l-.451-.195c-.129-.065-.258-.13-.451-.13-.129-.065-.386-.065-.773-.13h-.708l-1.932-.065h-.321v4.746c0 .26-.001.455.064.585v.065c.064 0 .193 0 .257.065.194 0 .451.065.773.065h1.03c.902 0 1.546 0 1.996-.065.451-.065.773-.13 1.031-.26l.579-.325-.193.65a6.805 6.805 0 00-.193.78c-.065.26-.129.52-.129.715l-.064.13-.129.065c-.065 0-.129 0-.322.065h-.773c-1.352 0-2.382 0-3.09-.065-.709-.065-1.288-.065-1.675-.065h-1.159l-.322.065v-.325c0-.195.001-.39.065-.78 0-.325.064-.78.064-1.235 0-.455 0-1.04.065-1.625v-5.266c0-1.56 0-2.796-.065-3.706-.129-1.235-.193-1.69-.193-1.82zm-14.037 1.43c.387-.065.902-.065 1.546-.13h2.382V32.57c0 .52 0 .91-.064 1.3 0 .325-.065.585-.065.78l-.064.39.322-.065c.322-.065.708-.065 1.094-.065h.709l.386.13-.064-.455c0-.13-.065-.39-.065-.78l-.064-1.3c0-.52 0-1.04-.065-1.625v-9.232h1.481c.451 0 .902 0 1.224.065.644.065 1.094.065 1.352.13.322.065.515.13.58.195l.386.26v-.52c0-.26.064-.585.064-.845s.065-.52.129-.715l.129-.455-.451.13c-.064 0-.193.065-.386.065s-.451.065-.709.065h-9.594c-.193 0-.386 0-.515-.065-.128 0-.257-.065-.386-.065l-.322-.065-.064.325c0 .13 0 .195-.065.325l-.064.455c0 .13-.064.26-.064.39s-.065.26-.065.325l-.193.52.515-.195c.386-.065.644-.13 1.03-.195zm25.305-1.43l-.129-.455.451.065c.193 0 .322.065.451.065h2.962c.644 0 1.288.065 1.867.13.644.13 1.159.325 1.545.585.515.325.966.78 1.288 1.365.322.585.515 1.235.515 2.015 0 1.626-.708 3.056-2.189 4.096.58.715 1.159 1.495 1.739 2.34.643.91 1.352 1.69 1.996 2.406.386.455.708.78 1.03 1.04.322.26.515.39.644.455l.644.26-.644.26c-.129.065-.387.13-.644.13-.451 0-.966.065-1.352 0l-.58-.195a1.003 1.003 0 01-.515-.39c-.193-.13-.386-.325-.579-.52-.258-.26-.58-.65-.902-1.04-.322-.455-.644-.91-1.03-1.365l-.966-1.366c-.322-.455-.579-.78-.773-1.105h-2.382v2.08c0 .52 0 1.04.064 1.496 0 .455.065.845.065 1.235 0 .325.064.65.064.845l.065.455-.387-.13h-1.288c-.257 0-.386 0-.45.065l-.387.13.065-.39c0-.13.064-.39.064-.78s.065-.78.065-1.3 0-1.04.064-1.625v-7.151c0-.586 0-1.106-.064-1.626 0-.455-.065-.91-.065-1.235-.257-.585-.322-.715-.322-.845zm2.318 6.891c.193 0 .387.065.708.065.451 0 .902.065 1.353.065.257 0 .45 0 .579-.065a.488.488 0 00.322-.13c.322-.26.644-.585.902-1.04.257-.455.386-.975.386-1.626 0-.975-.258-1.69-.837-2.21-.58-.52-1.352-.78-2.383-.78h-1.159v5.721h.129zM9.336 17.943v26.785l2.254-.715V23.404l16.29 16.448 1.61-1.625 14.616-14.823v20.609l2.254.585V17.943L27.816 36.667 9.336 17.943zm31.422.845l-1.61-1.625L27.816 28.67 9.723 10.272l-1.61 1.625 19.703 19.959 12.942-13.068zM223.43 34.716c.257.13.515.195.772.26.322.065.58.13.902.195.322.065.644.065.966.065.515 0 1.03-.065 1.545-.195.515-.13 1.03-.39 1.481-.65.322-.26.644-.52.901-.845.258-.325.387-.65.515-.91.129-.325.194-.65.258-.91.064-.325.064-.585.064-.78 0-.39-.064-.716-.128-1.106-.065-.39-.194-.715-.451-1.105-.193-.325-.515-.715-.837-1.04-.386-.325-.837-.715-1.417-1.105l-.901-.585a4.735 4.735 0 01-1.03-.78c-.258-.26-.451-.456-.58-.65a2.302 2.302 0 01-.257-.586c-.065-.195-.065-.455-.065-.65 0-.585.193-1.04.58-1.365.386-.39.901-.52 1.545-.52.386 0 .708.065.966.13.257.065.515.13.708.26.193.065.386.195.515.325s.258.195.322.325l.515.65V21.78l.065-.52c0-.195 0-.325.064-.455 0-.13 0-.195.064-.26l.065-.26-.258-.065c-.064 0-.193-.065-.386-.065l-.58-.065c-.257-.065-.515-.13-.837-.13-.322-.065-.643-.065-1.03-.065a5.24 5.24 0 00-1.803.325c-.515.195-1.03.52-1.352.845-.386.39-.644.78-.837 1.235a3.89 3.89 0 00-.322 1.495c0 .325.065.715.129 1.04.064.326.257.716.451 1.04.193.326.45.716.837 1.04.322.326.772.651 1.287 1.041l.902.65c.386.26.708.52.966.78.257.195.45.455.579.65.129.195.258.456.258.65.064.26.064.456.064.78 0 .326-.064.65-.129.91-.064.26-.257.521-.45.716-.193.195-.451.39-.709.455-.515.195-1.352.26-2.06.065-.322-.065-.58-.195-.837-.325a2.307 2.307 0 01-.644-.455c-.193-.195-.322-.325-.451-.52l-.515-.715v1.365c0 .195 0 .325-.064.52 0 .195-.065.325-.065.52 0 .13-.064.26-.064.325l-.064.195.128.13c.194-.13.451 0 .709.065zm-118.605.26l-.515.065.258-.52c.257-.52.515-1.17.837-1.95.322-.78.708-1.625 1.094-2.6l3.735-9.362c.129-.26.193-.52.257-.585.194-.455.58-.455.838-.065.064.13.128.325.321.65.065.13.194.455.451.975l1.996 4.746c.387.975.837 1.95 1.224 2.925l.644 1.56c.257.52.45 1.04.643 1.56.194.456.451.911.58 1.301.193.39.322.65.451.845l.322.455-.58-.065h-1.545c-.258 0-.387 0-.451.065l-.258.065-.064-.26c-.064-.195-.193-.52-.322-.91s-.322-.845-.515-1.3l-.579-1.43c-.194-.455-.322-.845-.516-1.17h-4.7c-.129.39-.258.78-.451 1.235-.193.455-.322.975-.515 1.43-.129.455-.322.91-.451 1.3-.128.39-.193.65-.257.91l-.064.26-.258-.065h-1.288c-.129-.13-.257-.13-.322-.065zm4.186-6.76h3.541l-1.867-4.552-1.674 4.551zm-42.11-7.217c0 .325.064.715.064 1.235 0 .455 0 1.04.064 1.625v8.777c0 .455 0 .91-.064 1.235 0 .325-.065.585-.065.78v.39l.386-.065h1.676c.322 0 .644 0 1.03.065.386 0 .837 0 1.352.065h2.639c.193 0 .257 0 .322-.065l.193-.065v-.195c0-.065.064-.13.064-.26.065-.13.065-.26.13-.39.064-.13.064-.26.128-.39s.064-.26.129-.325l.257-.65-.644.325c-.128.065-.257.065-.386.13s-.322.065-.58.13c-.257.065-.579.065-.9.065h-2.448c-.322 0-.58 0-.708-.065-.129 0-.258-.065-.258-.065 0-.065 0-.195-.064-.585v-6.826c0-1.366 0-2.536.064-3.446 0-.975.065-1.625.13-1.95l.064-.39-.387.13s-.128 0-.386.065h-1.416l-.451-.13.064.455v.39zm102.635.78c.386-.065.902-.065 1.545-.13h2.383V32.57c0 .52 0 .91-.065 1.3 0 .325-.064.585-.064.78l-.064.39.257-.065c.322-.065.709-.065 1.095-.065h.708l.386.13-.064-.455c0-.13-.064-.39-.064-.78l-.065-1.3c0-.52 0-1.04-.064-1.625v-9.232h1.481c.451 0 .901 0 1.223.065.644.065 1.095.065 1.352.13.322.065.516.13.58.195l.386.26v-.52c0-.26.065-.585.065-.845s.064-.52.128-.715l.129-.455-.451.13c-.064 0-.193.065-.386.065s-.451.065-.708.065h-9.465c-.193 0-.387 0-.515-.065-.129 0-.258-.065-.387-.065l-.322-.065-.064.325c0 .13 0 .195-.064.325l-.065.455c0 .13-.064.26-.064.39s-.065.26-.065.325l-.193.52.515-.195c.258-.065.58-.13.966-.195zM89.951 32.701c.773.845 1.739 1.495 2.898 1.95 1.094.39 2.318.585 3.541.585.837 0 1.674-.065 2.576-.195a9.922 9.922 0 002.318-.65l.193-.065V28.93c0-.325 0-.585.064-.78 0-.195 0-.39.065-.52l.064-.39-.386.065c-.129 0-.193.065-.387.065h-1.544l-.387-.065.064.39c0 .065.065.26.065.455s.064.455.064.65c0 .26.064.52.064.78v3.576c-.128.065-.257.13-.386.13-.193.065-.386.13-.58.13-.257.065-.45.065-.708.065a5.273 5.273 0 01-1.738-.065c-.387-.065-.837-.13-1.224-.325-.45-.13-.837-.325-1.287-.585a7.688 7.688 0 01-1.16-.975c-.45-.455-.836-1.04-1.158-1.82-.322-.716-.516-1.69-.516-2.731 0-.975.194-1.82.516-2.536.322-.715.772-1.3 1.223-1.755.515-.455 1.159-.78 1.803-1.04 1.352-.39 2.897-.39 3.992-.13.58.13 1.03.26 1.416.39.387.13.709.325.966.455.258.195.387.325.515.39l.516.52v-1.235c0-.195 0-.325.064-.52l.064-.455c0-.13.065-.195.065-.26l.129-.325-.322-.065c-.129 0-.322-.065-.58-.195-.257-.065-.644-.195-1.03-.26s-.901-.195-1.417-.26a13.47 13.47 0 00-1.674-.13h-1.159c-.45 0-.901.065-1.352.195-.515.13-.966.26-1.48.455a6.067 6.067 0 00-1.546.845c-.387.26-.709.585-1.095.91-.386.39-.708.845-.966 1.3-.257.52-.515 1.105-.708 1.756-.193.65-.258 1.365-.258 2.21 0 1.17.194 2.21.58 3.056.193 1.04.708 1.82 1.223 2.405zM245 0v55H0V0h245zM52.348 2.145H2.06V52.92h50.288V2.145zm190.785-.26H54.473v51.23h188.66V1.885zM77.911 22.104c0 .91.064 2.145.064 3.706v5.201c0 .585 0 1.105-.064 1.625 0 .455 0 .91-.065 1.235 0 .325-.064.585-.064.78v.325l.322-.065h1.159c.386 0 .901 0 1.674.065.773.065 1.803.065 3.09.065h.773c.193 0 .258 0 .322-.065l.129-.065.064-.13c.065-.195.065-.455.13-.715l.192-.78.194-.65-.58.325c-.258.13-.58.195-1.03.26-.451.065-1.095.065-1.996.065h-1.03c-.322 0-.516-.065-.773-.065-.065 0-.193 0-.258-.065v-.065c0-.13 0-.325-.064-.585v-4.681h.322l1.931.065h.709c.322 0 .58.065.772.13.13.065.322.065.451.13l.45.195v-1.17c0-.325.065-.585.13-.78l.128-.455-.45.13c-.065 0-.258.065-.451.065-.258 0-.58.065-1.095.065h-2.833v-4.551h1.803c.515 0 .966.065 1.224.065.45.065.772.065.965.13.258.065.387.13.451.13l.386.26v-.455c0-.325 0-.585.065-.91.064-.26.064-.52.064-.65l.065-.39-.387.065c-.193.065-.386.065-.708.065H78.04l-.451-.065.129.455c.128.13.128.585.193 1.755zm78.361 12.872l-.515.065.257-.52c.258-.52.516-1.17.838-1.95.321-.78.708-1.625 1.094-2.6l3.735-9.362c.128-.26.193-.52.257-.585.193-.455.58-.455.837-.065.065.13.129.325.322.65.065.13.193.455.451.975l1.996 4.746c.386.975.837 1.95 1.223 2.925l.644 1.56c.258.52.451 1.04.644 1.56.193.456.451.911.58 1.301.193.39.322.65.45.845l.322.455-.579-.065h-1.545c-.258 0-.387 0-.451.065l-.258.065-.064-.26c-.065-.195-.193-.52-.322-.91a18.3 18.3 0 00-.515-1.3l-.58-1.43c-.193-.455-.322-.845-.515-1.17h-4.7c-.129.39-.258.78-.451 1.235-.193.455-.322.975-.515 1.43-.129.455-.322.91-.451 1.3s-.193.65-.257.91l-.065.26-.257-.065h-1.288c-.129-.13-.258-.13-.322-.065zm4.185-6.76h3.542l-1.868-4.552-1.674 4.551zm-39.728-7.217c0 .325.065.715.065 1.235 0 .455 0 1.04.064 1.625v8.777c0 .455 0 .91-.064 1.235 0 .325-.065.585-.065.78v.39l.387-.065h1.674c.322 0 .644 0 1.03.065.386 0 .837 0 1.352.065h2.64c.193 0 .258 0 .322-.065l.193-.065v-.195c0-.065.065-.13.065-.26.064-.13.064-.26.128-.39.065-.13.065-.26.129-.39.065-.13.065-.26.129-.325l.257-.65-.643.325c-.129.065-.258.065-.387.13s-.322.065-.579.13c-.258.065-.58.065-.902.065h-2.446c-.322 0-.58 0-.709-.065-.129 0-.257-.065-.257-.065 0-.065 0-.195-.065-.585v-6.826c0-1.366 0-2.536.065-3.446 0-.975.064-1.625.128-1.95l.065-.39-.386.13s-.129 0-.387.065h-1.416l-.451-.13.064.455c-.064-.13-.064.065 0 .39zm17.643 13.912h.644l.322.065v-.39c0-.195 0-.52.064-.975 0-.455.064-.975.064-1.625.065-.585.065-1.3.129-2.016.065-.715.129-1.495.129-2.21.064-.715.129-1.43.129-2.145l.064-.78c.258.52.451.975.708 1.495.387.845.838 1.69 1.224 2.6.451.845.837 1.756 1.288 2.73.45.91.901 1.886 1.352 2.926.064.13.193.39.451.39.257 0 .386-.26.45-.455.387-.845.837-1.69 1.224-2.6l1.352-2.73 1.352-2.731c.258-.585.515-1.105.773-1.626l.064.91c.064.716.064 1.43.129 2.146.064.715.129 1.43.129 2.145l.128 2.016c.065.585.065 1.105.065 1.56v1.3l.322-.065c.129 0 .257-.065.45-.065h1.353l.45.195-.128-.52c-.065-.26-.129-.78-.258-1.56-.064-.78-.193-1.69-.322-2.73s-.193-2.146-.322-3.381c-.129-1.17-.193-2.34-.322-3.51-.064-.52-.129-1.041-.129-1.496-.064-.52-.064-.975-.128-1.43-.065-.325-.065-.455-.065-.52-.129-.26-.257-.26-.386-.26a.488.488 0 00-.322.13c-.064.065-.129.13-.258.39-.128.325-.322.585-.45.91-.129.325-.322.585-.451.91l-.515 1.04c-.193.39-.387.78-.644 1.235l-3.413 6.892-3.927-7.802c-.129-.26-.258-.52-.451-.845-.193-.325-.322-.65-.515-.975l-.451-.91c-.129-.26-.258-.455-.322-.585-.064-.065-.064-.13-.129-.195-.128-.195-.257-.26-.386-.26-.064 0-.193 0-.322.195 0 .065-.064.13-.064.325-.065.455-.129.91-.129 1.43-.065.52-.129 1.04-.129 1.56-.129 1.17-.257 2.34-.386 3.576a183.72 183.72 0 01-.387 3.445c-.128 1.106-.257 2.016-.322 2.796-.128.78-.193 1.3-.193 1.56l-.064.39.579.195c.065-.065.322-.065.902-.065z" fill="#4D3A4E"/></svg>