<?xml version="1.0" encoding="utf-8"?><svg viewBox="0 0 24 24" xmlns="http://www.w3.org/2000/svg" xmlns:xlink="http://www.w3.org/1999/xlink"><style>:root>svg{display:none}:root>svg:target{display:block}</style><svg fill="none" viewBox="0 0 12 14" id="icon-arrow-top" xmlns="http://www.w3.org/2000/svg"><path d="M6.246 13.002V2.556l4.101 4.132.811-.817L5.673.345.188 5.872 1 6.689 5.1 2.557V13h1.146z" fill="currentColor"/></svg><svg fill="none" viewBox="0 0 24 24" id="icon-close" xmlns="http://www.w3.org/2000/svg"><path fill-rule="evenodd" clip-rule="evenodd" d="M3.293 3.293a1 1 0 011.414 0L12 10.586l7.293-7.293a1 1 0 111.414 1.414L13.414 12l7.293 7.293a1 1 0 01-1.414 1.414L12 13.414l-7.293 7.293a1 1 0 01-1.414-1.414L10.586 12 3.293 4.707a1 1 0 010-1.414z" fill="currentColor"/><path fill-rule="evenodd" clip-rule="evenodd" d="M3.293 3.293a1 1 0 011.414 0L12 10.586l7.293-7.293a1 1 0 111.414 1.414L13.414 12l7.293 7.293a1 1 0 01-1.414 1.414L12 13.414l-7.293 7.293a1 1 0 01-1.414-1.414L10.586 12 3.293 4.707a1 1 0 010-1.414z" fill="currentColor"/></svg></svg>